<svg xmlns="http://www.w3.org/2000/svg" xmlns:xlink="http://www.w3.org/1999/xlink" viewBox="0 0 121.43 37.34"><defs><style>.a{mask:url(#a);}.b{fill:#fff;}.c{filter:url(#b);}</style><filter id="b" x="0" y="0" width="121.43" height="37.34" filterUnits="userSpaceOnUse" color-interpolation-filters="sRGB"><feFlood flood-color="#fff" result="bg"/><feBlend in="SourceGraphic" in2="bg"/></filter><mask id="a" x="0" y="0" width="121.43" height="37.34" maskUnits="userSpaceOnUse"><g class="c"><path d="M30.13,13.73a7.38,7.38,0,0,1,2,.24,3.41,3.41,0,0,1,1.32.67,1.36,1.36,0,0,1,.47,1,1.29,1.29,0,0,1-.24.75.81.81,0,0,1-.7.35,1.33,1.33,0,0,1-.53-.09,1.37,1.37,0,0,1-.37-.23,2.81,2.81,0,0,0-.38-.26,2,2,0,0,0-.61-.19,3.73,3.73,0,0,0-.61-.07,3.24,3.24,0,0,0-1.73.44,2.85,2.85,0,0,0-1.09,1.19,3.7,3.7,0,0,0-.38,1.73A3.65,3.65,0,0,0,27.66,21a3,3,0,0,0,1.08,1.19,2.84,2.84,0,0,0,1.59.44,5.34,5.34,0,0,0,.86-.06,2.13,2.13,0,0,0,.6-.18,4.85,4.85,0,0,0,.5-.34,1.2,1.2,0,0,1,1.46.15A1.24,1.24,0,0,1,34,23a1.14,1.14,0,0,1-.56.91,4.78,4.78,0,0,1-1.47.66,7.33,7.33,0,0,1-2,.25,5,5,0,0,1-2.74-.73,4.85,4.85,0,0,1-1.79-2,6.22,6.22,0,0,1-.63-2.82,6,6,0,0,1,.67-2.89,4.88,4.88,0,0,1,1.86-2A5.24,5.24,0,0,1,30.13,13.73Z"/><path d="M46.05,19.29a5.66,5.66,0,0,1-.73,2.89,5.24,5.24,0,0,1-2,1.95,5.75,5.75,0,0,1-5.5,0,5.17,5.17,0,0,1-2-1.95,5.57,5.57,0,0,1-.73-2.89,5.62,5.62,0,0,1,.73-2.89,5.27,5.27,0,0,1,2-2,5.68,5.68,0,0,1,5.5,0,5.34,5.34,0,0,1,2,2A5.72,5.72,0,0,1,46.05,19.29Zm-2.4,0a3.67,3.67,0,0,0-.41-1.77,3.1,3.1,0,0,0-1.1-1.17,3,3,0,0,0-3.06,0A3.13,3.13,0,0,0,38,17.52a3.67,3.67,0,0,0-.4,1.77A3.62,3.62,0,0,0,38,21a3.13,3.13,0,0,0,1.11,1.17,3,3,0,0,0,3.06,0A3.1,3.1,0,0,0,43.24,21,3.62,3.62,0,0,0,43.65,19.29Z"/><path d="M53.77,13.73a3.57,3.57,0,0,1,2.25.62A3.27,3.27,0,0,1,57.08,16a8.59,8.59,0,0,1,.29,2.29v5.12a1.22,1.22,0,0,1-.34.87,1.14,1.14,0,0,1-.86.35,1.11,1.11,0,0,1-.86-.35,1.18,1.18,0,0,1-.34-.87V18.29a4,4,0,0,0-.17-1.19,1.7,1.7,0,0,0-.61-.85,2.17,2.17,0,0,0-1.26-.32,2.64,2.64,0,0,0-1.35.32,2.14,2.14,0,0,0-.84.85,2.36,2.36,0,0,0-.29,1.19v5.12a1.22,1.22,0,0,1-.34.87,1.14,1.14,0,0,1-.86.35,1.11,1.11,0,0,1-.86-.35,1.18,1.18,0,0,1-.34-.87V15.15a1.21,1.21,0,0,1,.34-.87,1.15,1.15,0,0,1,.86-.35,1.18,1.18,0,0,1,.86.35,1.25,1.25,0,0,1,.34.87V16l-.3-.06a4,4,0,0,1,.52-.73,4.73,4.73,0,0,1,.8-.73,4.11,4.11,0,0,1,1-.55A3.62,3.62,0,0,1,53.77,13.73Z"/><path d="M60.09,14.13h4.74A1.11,1.11,0,0,1,66,15.25a1,1,0,0,1-.33.77,1.06,1.06,0,0,1-.79.31H60.09A1.09,1.09,0,0,1,59,15.21a1,1,0,0,1,.32-.77A1.13,1.13,0,0,1,60.09,14.13Zm2.14-2.5a1.14,1.14,0,0,1,.85.35,1.25,1.25,0,0,1,.33.87v8.9a.81.81,0,0,0,.11.46.59.59,0,0,0,.3.26.91.91,0,0,0,.41.08,1,1,0,0,0,.43-.09,1.14,1.14,0,0,1,.46-.09.71.71,0,0,1,.52.26,1.07,1.07,0,0,1,.23.72,1.05,1.05,0,0,1-.62.92,2.5,2.5,0,0,1-1.3.36,6.29,6.29,0,0,1-.93-.07,2.35,2.35,0,0,1-1-.34,2,2,0,0,1-.75-.83,3.29,3.29,0,0,1-.3-1.54v-9a1.15,1.15,0,0,1,.35-.87A1.18,1.18,0,0,1,62.23,11.63Z"/><path d="M76.81,13.73a1.17,1.17,0,0,1,.85.34A1.18,1.18,0,0,1,78,15v8.46a1.18,1.18,0,0,1-.34.87,1.1,1.1,0,0,1-.85.35,1.15,1.15,0,0,1-.87-.35,1.22,1.22,0,0,1-.34-.87v-1l.45.18a1.15,1.15,0,0,1-.29.63A3.33,3.33,0,0,1,75,24a4.77,4.77,0,0,1-1.12.61,3.89,3.89,0,0,1-1.42.25,4.53,4.53,0,0,1-2.5-.71,5,5,0,0,1-1.76-2,6,6,0,0,1-.66-2.87,6.13,6.13,0,0,1,.66-2.89,5,5,0,0,1,1.75-2,4.4,4.4,0,0,1,2.43-.71A4.73,4.73,0,0,1,74,14a5.11,5.11,0,0,1,1.25.66,4.2,4.2,0,0,1,.82.81,1.33,1.33,0,0,1,.29.69l-.73.26V15a1.25,1.25,0,0,1,.34-.87A1.18,1.18,0,0,1,76.81,13.73Zm-4,8.9a2.71,2.71,0,0,0,1.55-.44,2.93,2.93,0,0,0,1-1.2,3.76,3.76,0,0,0,.38-1.7,3.85,3.85,0,0,0-.38-1.72,3,3,0,0,0-1-1.2,2.79,2.79,0,0,0-1.55-.44,2.71,2.71,0,0,0-1.52.44,3,3,0,0,0-1,1.2,4,4,0,0,0-.37,1.72,3.89,3.89,0,0,0,.37,1.7,3,3,0,0,0,1,1.2A2.63,2.63,0,0,0,72.76,22.63Z"/><path d="M85.26,13.73a7.33,7.33,0,0,1,2,.24,3.27,3.27,0,0,1,1.32.67,1.33,1.33,0,0,1,.47,1,1.29,1.29,0,0,1-.24.75.8.8,0,0,1-.7.35,1.36,1.36,0,0,1-.53-.09,1.54,1.54,0,0,1-.37-.23,1.94,1.94,0,0,0-.38-.26,1.83,1.83,0,0,0-.61-.19,3.51,3.51,0,0,0-.61-.07,3.27,3.27,0,0,0-1.73.44,2.89,2.89,0,0,0-1.08,1.19,3.71,3.71,0,0,0-.39,1.73A3.78,3.78,0,0,0,82.79,21a3,3,0,0,0,1.08,1.19,2.84,2.84,0,0,0,1.59.44,5.26,5.26,0,0,0,.86-.06,2.13,2.13,0,0,0,.6-.18,3.35,3.35,0,0,0,.5-.34,1,1,0,0,1,.66-.18,1,1,0,0,1,.8.33,1.19,1.19,0,0,1,.28.81,1.11,1.11,0,0,1-.56.91,4.57,4.57,0,0,1-1.47.66,7.23,7.23,0,0,1-2,.25,5,5,0,0,1-2.74-.73,4.92,4.92,0,0,1-1.79-2A6.22,6.22,0,0,1,80,19.29a6.13,6.13,0,0,1,.67-2.89,5,5,0,0,1,1.87-2A5.23,5.23,0,0,1,85.26,13.73Z"/><path d="M91,14.13h4.74a1.09,1.09,0,0,1,.8.32,1.06,1.06,0,0,1,.32.8,1,1,0,0,1-.32.77,1.09,1.09,0,0,1-.8.31H91a1.07,1.07,0,0,1-.8-.32,1.09,1.09,0,0,1-.32-.8,1,1,0,0,1,.32-.77A1.14,1.14,0,0,1,91,14.13Zm2.14-2.5A1.12,1.12,0,0,1,94,12a1.21,1.21,0,0,1,.33.87v8.9a.89.89,0,0,0,.11.46.68.68,0,0,0,.3.26,1,1,0,0,0,.41.08,1,1,0,0,0,.44-.09,1.14,1.14,0,0,1,.46-.09.67.67,0,0,1,.51.26,1,1,0,0,1,.23.72,1,1,0,0,1-.61.92,2.51,2.51,0,0,1-1.31.36,6.38,6.38,0,0,1-.93-.07,2.41,2.41,0,0,1-1-.34,2,2,0,0,1-.75-.83,3.29,3.29,0,0,1-.3-1.54v-9a1.18,1.18,0,0,1,.35-.87A1.22,1.22,0,0,1,93.16,11.63Z"/></g></mask></defs><title>btn contact</title><g class="a"><rect class="b" width="121.43" height="37.34" rx="18.67"/></g></svg>