<svg xmlns="http://www.w3.org/2000/svg" xmlns:xlink="http://www.w3.org/1999/xlink" viewBox="0 0 121.43 37.34"><defs><style>.a{mask:url(#a);}.b{fill:#fff;}.c{filter:url(#b);}</style><filter id="b" x="0" y="0" width="121.43" height="37.34" filterUnits="userSpaceOnUse" color-interpolation-filters="sRGB"><feFlood flood-color="#fff" result="bg"/><feBlend in="SourceGraphic" in2="bg"/></filter><mask id="a" x="0" y="0" width="121.43" height="37.34" maskUnits="userSpaceOnUse"><g class="c"><path d="M14.65,13.93a1.44,1.44,0,0,1,.7.19,1.23,1.23,0,0,1,.48.57l2.94,6.72-.44.2,3-6.9A1,1,0,0,1,22.39,14a1.13,1.13,0,0,1,.81.31,1.09,1.09,0,0,1,.31.77,1.11,1.11,0,0,1-.05.3c0,.11-.07.21-.11.3l-3.74,8.24a1.15,1.15,0,0,1-1,.76,1.1,1.1,0,0,1-.73-.14,1.21,1.21,0,0,1-.53-.62l-3.72-8.24a1.52,1.52,0,0,1-.09-.26,1.06,1.06,0,0,1,0-.38,1,1,0,0,1,.32-.71A1.11,1.11,0,0,1,14.65,13.93Z"/><path d="M26.45,12.63a1.54,1.54,0,0,1-1-.22.93.93,0,0,1-.28-.78v-.38a.89.89,0,0,1,.31-.79,2.27,2.27,0,0,1,1.93,0,1,1,0,0,1,.28.78v.38a.9.9,0,0,1-.3.79A1.76,1.76,0,0,1,26.45,12.63Zm1.22,10.78a1.22,1.22,0,0,1-.34.87,1.14,1.14,0,0,1-.86.35,1.11,1.11,0,0,1-.86-.35,1.18,1.18,0,0,1-.34-.87V15.15a1.21,1.21,0,0,1,.34-.87,1.15,1.15,0,0,1,.86-.35,1.18,1.18,0,0,1,.86.35,1.25,1.25,0,0,1,.34.87Z"/><path d="M35.07,24.83a5.78,5.78,0,0,1-3-.71,4.82,4.82,0,0,1-1.92-1.93,5.58,5.58,0,0,1-.67-2.76,6,6,0,0,1,.73-3.07,5.19,5.19,0,0,1,1.91-1.95,5,5,0,0,1,2.5-.68,4.56,4.56,0,0,1,1.93.42,5.52,5.52,0,0,1,1.61,1.15A5.9,5.9,0,0,1,39.32,17a5.2,5.2,0,0,1,.41,2,1,1,0,0,1-.38.78,1.27,1.27,0,0,1-.84.3H30.87l-.6-2h7.34l-.44.4V18a1.9,1.9,0,0,0-.41-1,2.73,2.73,0,0,0-.92-.73,2.64,2.64,0,0,0-1.17-.27,4,4,0,0,0-1.12.16,2.17,2.17,0,0,0-.9.54,2.56,2.56,0,0,0-.6,1,5,5,0,0,0-.22,1.62,3.5,3.5,0,0,0,.45,1.83,3,3,0,0,0,1.16,1.14,3.06,3.06,0,0,0,1.51.39,4.7,4.7,0,0,0,1.18-.12,2.82,2.82,0,0,0,.71-.29l.49-.29a1.5,1.5,0,0,1,.68-.18,1,1,0,0,1,.73.3,1,1,0,0,1,.29.7,1.25,1.25,0,0,1-.56,1A4.62,4.62,0,0,1,37,24.5,5.86,5.86,0,0,1,35.07,24.83Z"/><path d="M54.05,13.93a1.11,1.11,0,0,1,.8.35,1.26,1.26,0,0,1,.34.89,1.69,1.69,0,0,1,0,.25q0,.12-.06.21l-3.06,8.24a1.16,1.16,0,0,1-1.27.76,1.14,1.14,0,0,1-1-.76l-2-5.7.53,0-1.86,5.68a1.17,1.17,0,0,1-1,.76,1.11,1.11,0,0,1-.75-.15,1.06,1.06,0,0,1-.51-.61l-3.06-8.24a1.17,1.17,0,0,1-.08-.46,1.28,1.28,0,0,1,.32-.86,1.09,1.09,0,0,1,.88-.38,1.27,1.27,0,0,1,.67.18.92.92,0,0,1,.42.58l2.42,6.56-.5,0,1.83-4.94a1.12,1.12,0,0,1,1.1-.74,1.09,1.09,0,0,1,.67.19,1.32,1.32,0,0,1,.36.55L51,21.21l-.6.08,2.46-6.6A1.08,1.08,0,0,1,54.05,13.93Z"/><path d="M75,13.93a1.11,1.11,0,0,1,.8.35,1.26,1.26,0,0,1,.34.89,1.69,1.69,0,0,1,0,.25q0,.12-.06.21L73,23.87a1.12,1.12,0,0,1-.5.61,1.27,1.27,0,0,1-1.78-.61l-2-5.7.52,0L67.4,23.87a1.14,1.14,0,0,1-1,.76,1.11,1.11,0,0,1-.75-.15,1.06,1.06,0,0,1-.51-.61l-3.06-8.24a1.17,1.17,0,0,1-.08-.46,1.28,1.28,0,0,1,.32-.86,1.09,1.09,0,0,1,.88-.38,1.3,1.3,0,0,1,.68.18,1,1,0,0,1,.42.58l2.42,6.56-.5,0L68,16.27a1.12,1.12,0,0,1,1.1-.74,1.09,1.09,0,0,1,.67.19,1.44,1.44,0,0,1,.37.55L72,21.21l-.6.08,2.46-6.6A1.08,1.08,0,0,1,75,13.93Z"/><path d="M88.32,19.29a5.57,5.57,0,0,1-.73,2.89,5.1,5.1,0,0,1-2,1.95,5.75,5.75,0,0,1-5.5,0,5.24,5.24,0,0,1-2-1.95,5.66,5.66,0,0,1-.72-2.89,5.71,5.71,0,0,1,.72-2.89,5.33,5.33,0,0,1,4.71-2.67,5.33,5.33,0,0,1,4.71,2.67A5.62,5.62,0,0,1,88.32,19.29Zm-2.4,0a3.56,3.56,0,0,0-.41-1.77,3,3,0,0,0-1.1-1.17,3,3,0,0,0-3,0,3.13,3.13,0,0,0-1.11,1.17,3.67,3.67,0,0,0-.41,1.77A3.62,3.62,0,0,0,80.25,21a3.13,3.13,0,0,0,1.11,1.17,3,3,0,0,0,3,0A3,3,0,0,0,85.51,21,3.51,3.51,0,0,0,85.92,19.29Z"/><path d="M91.53,24.63a1.15,1.15,0,0,1-.87-.35,1.22,1.22,0,0,1-.34-.87V15.15a1.25,1.25,0,0,1,.34-.87,1.24,1.24,0,0,1,1.73,0,1.25,1.25,0,0,1,.34.87V17l-.15-1.34a3.33,3.33,0,0,1,.57-.85,3.73,3.73,0,0,1,.8-.62,3.68,3.68,0,0,1,.94-.37,4.21,4.21,0,0,1,1-.12,1.6,1.6,0,0,1,1,.34,1,1,0,0,1,.41.8,1.2,1.2,0,0,1-.34,1,1.1,1.1,0,0,1-.74.29,1.59,1.59,0,0,1-.7-.14,1.73,1.73,0,0,0-1.43,0,2.13,2.13,0,0,0-.69.53,3,3,0,0,0-.5.89,3.92,3.92,0,0,0-.18,1.25v4.74a1.22,1.22,0,0,1-.34.87A1.14,1.14,0,0,1,91.53,24.63Z"/><path d="M100.4,24.63a1.14,1.14,0,0,1-.86-.35,1.22,1.22,0,0,1-.34-.87V11.05a1.25,1.25,0,0,1,.34-.87,1.18,1.18,0,0,1,.86-.35,1.15,1.15,0,0,1,.86.35,1.22,1.22,0,0,1,.35.87V23.41a1.18,1.18,0,0,1-.35.87A1.11,1.11,0,0,1,100.4,24.63Zm6.36-10.7a1.07,1.07,0,0,1,.81.38,1.16,1.16,0,0,1,.33.74,1.2,1.2,0,0,1-.48.9l-6,5.54-.1-2.76,4.58-4.42A1.24,1.24,0,0,1,106.76,13.93Zm.31,10.68a1.11,1.11,0,0,1-.88-.4l-3.7-3.92,1.81-1.68,3.6,3.92a1.26,1.26,0,0,1,.38.9,1,1,0,0,1-.41.85A1.28,1.28,0,0,1,107.07,24.61Z"/></g></mask></defs><title>btn work</title><g class="a"><rect class="b" width="121.43" height="37.34" rx="18.67"/></g></svg>