<svg xmlns="http://www.w3.org/2000/svg" xmlns:xlink="http://www.w3.org/1999/xlink" viewBox="0 0 121.43 37.34"><defs><style>.a{mask:url(#a);}.b{fill:#fff;}.c{filter:url(#b);}</style><filter id="b" x="0" y="0" width="121.43" height="37.34" filterUnits="userSpaceOnUse" color-interpolation-filters="sRGB"><feFlood flood-color="#fff" result="bg"/><feBlend in="SourceGraphic" in2="bg"/></filter><mask id="a" x="0" y="0" width="121.43" height="37.34" maskUnits="userSpaceOnUse"><g class="c"><path d="M42.38,13.73a1.21,1.21,0,0,1,.86.34,1.22,1.22,0,0,1,.34.88v8.46a1.22,1.22,0,0,1-.34.87,1.14,1.14,0,0,1-.86.35,1.11,1.11,0,0,1-.86-.35,1.18,1.18,0,0,1-.34-.87v-1l.44.18a1.14,1.14,0,0,1-.28.63,3.81,3.81,0,0,1-.76.73,4.5,4.5,0,0,1-1.13.61,3.88,3.88,0,0,1-1.41.25,4.5,4.5,0,0,1-2.5-.71,4.88,4.88,0,0,1-1.77-2,6,6,0,0,1-.65-2.87,6.12,6.12,0,0,1,.65-2.89,5,5,0,0,1,1.75-2A4.41,4.41,0,0,1,38,13.73a4.72,4.72,0,0,1,1.58.26,5.27,5.27,0,0,1,1.25.66,4.2,4.2,0,0,1,.82.81,1.33,1.33,0,0,1,.29.69l-.72.26V15a1.21,1.21,0,0,1,.34-.87A1.15,1.15,0,0,1,42.38,13.73Zm-4,8.9a2.68,2.68,0,0,0,1.54-.44,3,3,0,0,0,1-1.2,3.89,3.89,0,0,0,.37-1.7,4,4,0,0,0-.37-1.72,3.09,3.09,0,0,0-1-1.2,2.75,2.75,0,0,0-1.54-.44,2.69,2.69,0,0,0-1.52.44,3,3,0,0,0-1,1.2,3.84,3.84,0,0,0-.37,1.72,3.76,3.76,0,0,0,.37,1.7,2.88,2.88,0,0,0,1,1.2A2.61,2.61,0,0,0,38.34,22.63Z"/><path d="M51.72,13.73a4.59,4.59,0,0,1,2.51.71,5.19,5.19,0,0,1,1.76,2,6.18,6.18,0,0,1,.65,2.88A6.19,6.19,0,0,1,56,22.16a5.11,5.11,0,0,1-1.74,2,4.36,4.36,0,0,1-2.45.71,4.08,4.08,0,0,1-1.5-.26,4.51,4.51,0,0,1-1.23-.66,3.5,3.5,0,0,1-.82-.81,1.22,1.22,0,0,1-.29-.69l.62-.26v1.46a1.22,1.22,0,0,1-.34.87,1.18,1.18,0,0,1-.86.35,1.14,1.14,0,0,1-.86-.34,1.17,1.17,0,0,1-.34-.88V11.05a1.21,1.21,0,0,1,.34-.87,1.15,1.15,0,0,1,.86-.35,1.18,1.18,0,0,1,.86.35,1.25,1.25,0,0,1,.34.87v5.08L48.24,16a1.12,1.12,0,0,1,.28-.63,4.14,4.14,0,0,1,.76-.74A4.23,4.23,0,0,1,50.39,14,3.69,3.69,0,0,1,51.72,13.73Zm-.3,2.2a2.73,2.73,0,0,0-1.54.44,3,3,0,0,0-1,1.19,3.77,3.77,0,0,0-.37,1.71A3.83,3.83,0,0,0,48.85,21a2.85,2.85,0,0,0,1,1.21,2.9,2.9,0,0,0,3.07,0A3,3,0,0,0,54,21a4,4,0,0,0,.37-1.71A3.91,3.91,0,0,0,54,17.56a3.12,3.12,0,0,0-1-1.19A2.72,2.72,0,0,0,51.42,15.93Z"/><path d="M68.91,19.29a5.57,5.57,0,0,1-.73,2.89,5.07,5.07,0,0,1-2,1.95,5.75,5.75,0,0,1-5.5,0,5.1,5.1,0,0,1-2-1.95A5.57,5.57,0,0,1,58,19.29a5.62,5.62,0,0,1,.73-2.89,5.34,5.34,0,0,1,2-2,5.68,5.68,0,0,1,5.5,0,5.31,5.31,0,0,1,2,2A5.62,5.62,0,0,1,68.91,19.29Zm-2.4,0a3.56,3.56,0,0,0-.41-1.77A3,3,0,0,0,65,16.35a2.83,2.83,0,0,0-1.52-.42,2.86,2.86,0,0,0-1.53.42,3,3,0,0,0-1.1,1.17,3.56,3.56,0,0,0-.41,1.77A3.51,3.51,0,0,0,60.85,21,3,3,0,0,0,62,22.21a2.86,2.86,0,0,0,1.53.42A2.83,2.83,0,0,0,65,22.21,3,3,0,0,0,66.1,21,3.51,3.51,0,0,0,66.51,19.29Z"/><path d="M78.86,13.93a1.14,1.14,0,0,1,.85.35,1.22,1.22,0,0,1,.35.87v5.08a4.64,4.64,0,0,1-1.19,3.36,5.27,5.27,0,0,1-6.79,0,4.72,4.72,0,0,1-1.17-3.36V15.15a1.25,1.25,0,0,1,.34-.87,1.24,1.24,0,0,1,1.73,0,1.25,1.25,0,0,1,.34.87v5.08A2.56,2.56,0,0,0,73.86,22a2,2,0,0,0,1.62.59A2.11,2.11,0,0,0,77.12,22a2.61,2.61,0,0,0,.54-1.81V15.15a1.24,1.24,0,0,1,.33-.87A1.18,1.18,0,0,1,78.86,13.93Z"/><path d="M82.78,14.13h4.74a1.09,1.09,0,0,1,1.12,1.12,1,1,0,0,1-.32.77,1.1,1.1,0,0,1-.8.31H82.78A1,1,0,0,1,82,16a1.06,1.06,0,0,1-.32-.8,1,1,0,0,1,.32-.77A1.11,1.11,0,0,1,82.78,14.13Zm2.13-2.5a1.15,1.15,0,0,1,.86.35,1.21,1.21,0,0,1,.33.87v8.9a.9.9,0,0,0,.1.46.65.65,0,0,0,.31.26.9.9,0,0,0,.4.08,1.1,1.1,0,0,0,.45-.09,1.08,1.08,0,0,1,.46-.09.71.71,0,0,1,.51.26A1.08,1.08,0,0,1,88,24.27a2.56,2.56,0,0,1-1.31.36,6.62,6.62,0,0,1-.94-.07,2.52,2.52,0,0,1-1-.34,2.18,2.18,0,0,1-.75-.83,3.43,3.43,0,0,1-.29-1.54v-9a1.15,1.15,0,0,1,.35-.87A1.18,1.18,0,0,1,84.91,11.63Z"/></g></mask></defs><title>btn about</title><g class="a"><rect class="b" width="121.43" height="37.34" rx="18.67"/></g></svg>