<svg xmlns="http://www.w3.org/2000/svg" xmlns:xlink="http://www.w3.org/1999/xlink" viewBox="0 0 500 500"><defs><style>.a,.b{fill:none;stroke:#000;stroke-miterlimit:10;}.a{stroke-width:4.79px;}.b{stroke-width:4.79px;}.c{mask:url(#a);}.d{fill:#031361;}.e{mask:url(#c);}.f{filter:url(#d);}.g{filter:url(#b);}</style><filter id="b" x="-26.19" y="2.95" width="487.07" height="430.88" filterUnits="userSpaceOnUse" color-interpolation-filters="sRGB"><feFlood flood-color="#fff" result="bg"/><feBlend in="SourceGraphic" in2="bg"/></filter><mask id="a" x="-26.19" y="2.95" width="487.07" height="430.88" maskUnits="userSpaceOnUse"><g class="g"><path class="a" d="M459.92,220.14c-7.7-3.36-4.82-9.94-12.52-13.31s-10.58,3.23-18.28-.13-4.82-9.95-12.52-13.31-10.58,3.23-18.28-.14-4.83-9.94-12.53-13.3-10.57,3.22-18.27-.14-4.83-9.95-12.53-13.31-10.57,3.23-18.27-.13-4.83-10-12.53-13.31-10.58,3.22-18.28-.14-4.82-9.95-12.53-13.31-10.57,3.23-18.27-.13-4.83-9.95-12.53-13.31S252,129.39,244.3,126s-4.82-10-12.52-13.31-10.58,3.23-18.28-.14-4.83-9.94-12.53-13.3-10.57,3.22-18.28-.14-4.82-10-12.52-13.31-10.58,3.23-18.28-.13-4.82-10-12.52-13.31-10.58,3.22-18.28-.14-4.83-10-12.53-13.31S98,62.16,90.28,58.8s-4.83-9.94-12.53-13.31-10.58,3.23-18.28-.13-4.83-10-12.53-13.31-10.58,3.22-18.28-.14S23.83,22,16.13,18.6,5.55,21.82-2.16,18.46-7,8.51-14.69,5.14"/><path class="a" d="M449.38,299.79c-7.7-3.36-4.82-10-12.52-13.31s-10.58,3.23-18.28-.13-4.82-10-12.52-13.31-10.58,3.22-18.28-.14S383,263,375.26,259.6s-10.58,3.22-18.28-.14-4.83-9.95-12.53-13.31-10.57,3.23-18.27-.13-4.83-10-12.53-13.31-10.58,3.22-18.28-.14-4.82-9.95-12.52-13.31-10.58,3.23-18.28-.14-4.83-9.94-12.53-13.3-10.57,3.22-18.27-.14-4.83-10-12.53-13.31-10.58,3.23-18.28-.14-4.83-9.94-12.53-13.3-10.57,3.22-18.27-.14-4.83-9.95-12.53-13.31-10.57,3.23-18.28-.14-4.82-9.94-12.52-13.3-10.58,3.22-18.28-.14S105.72,142,98,138.59s-10.58,3.22-18.28-.14-4.83-9.95-12.53-13.31-10.58,3.23-18.28-.14-4.83-9.94-12.53-13.3-10.57,3.22-18.28-.14-4.83-10-12.53-13.31S-5,101.47-12.7,98.11s-4.83-10-12.53-13.32"/></g></mask><filter id="d" x="263.98" y="51.82" width="187.05" height="365.43" filterUnits="userSpaceOnUse" color-interpolation-filters="sRGB"><feFlood flood-color="#fff" result="bg"/><feBlend in="SourceGraphic" in2="bg"/></filter><mask id="c" x="263.98" y="51.82" width="187.05" height="365.43" maskUnits="userSpaceOnUse"><g class="f"><path class="b" d="M296.37,108A34.9,34.9,0,0,1,319,100.4c28,0,28,23.95,56,23.95,14,0,21-6,28-12"/><path class="b" d="M265.54,278.65c7-6,14-12,28-12,28,0,28,23.95,56,23.95s28-23.95,56-23.95c21.88,0,26.67,14.62,41.08,21"/></g></mask></defs><title>Logo Flat 2</title><g class="c"><path class="d" d="M252.48,371.68a6,6,0,0,0-7.76-3.38c-4.89,1.91-11.45,3.69-14.88,1.2-6.15-4.45-5.09-22.79-4.33-36.18.59-10.35,1.16-20.12-.55-27.19-2.42-10-8-17.34-13.69-24.19-.66-.8-1.34-1.62-2-2.41-7.39-8.77-13.8-16.38-13.39-28.33,10.38,14,18.83,21.6,26.59,25,11,4.79,20.6,1.24,32.44-4.1,6.68-3,14.26-6.44,23.76-8.18a6,6,0,1,0-2.16-11.78c-10.94,2-19.58,5.91-26.53,9-16.32,7.37-23.87,10.75-44.42-17,13-7.56,22.81-21.55,30.16-37.82,11.47-25.4,17-56.36,19.75-77.24.91-6.92,1.51-12.75,1.92-16.9,15.64,14.09,20.38,5.28,21.45-6.51s-30.29-52.24-23.47-80.12c-15.8,24-66.78,28.48-74.7,37.27S169.48,81.1,190.45,83c-3,3.33-7.17,8.15-12,14-13.07,15.84-30.82,39.61-41.48,64.06-7.5,17.18-11.51,34.69-7.91,50-24,1.84-30.57-13.26-37.47-29.25-4.5-10.45-9.15-21.24-19.35-24.92a6,6,0,0,0-4.08,11.26c5.32,1.91,8.62,9.56,12.43,18.4,5.08,11.78,11.48,26.63,26.6,33.22,6.1,2.67,13.64,4,23.07,3.21-9.37,7.83-19.24,11.22-30,10.3a42.83,42.83,0,0,1-4.27-.58c-23-4.28-46.8-.86-60.65,8.71-14.17,9.8-23.32,28.16-29,41.12a6,6,0,1,0,11,4.79c2.93-6.7,11.82-27.07,24.81-36.05,11.18-7.73,31.94-10.46,51.65-6.79a50.08,50.08,0,0,0,34.3-5.52,62.78,62.78,0,0,0,7.86-5.2c-2.15,2.4-4.32,4.69-6.5,6.9-10.94,11-22.19,19.85-32.38,27.8-26.11,20.4-48.65,38-46.6,78.3,1.5,29.56-3.39,37.38-3.92,38.12a6,6,0,0,0,7.88,9c3-2.39,9.83-11.8,8-47.74-1.73-34.08,16.62-48.4,42-68.24,10.35-8.08,21.74-17,33-28.3,3.46-3.47,6.9-7.17,10.32-11.16a1.26,1.26,0,0,0,.11-.17l.76.53c-3.2,4.07-6.11,8-8.8,11.82C108.32,295.21,109,323,109.56,343.78c.3,11.21.53,20.05-4.26,28.89-5.5,10.14-12.91,14.42-17.79,14.16-4.59-.24-7.22-4.33-8.62-7.71a6,6,0,1,0-11.07,4.56c2.71,6.54,7,11.22,12.28,13.52a19.39,19.39,0,0,0,6.77,1.59c10.73.57,21.83-7.26,29-20.42,6.32-11.64,6-22.94,5.71-34.91-.56-21.26-1.25-47.55,33.41-93.21q1.67-2.22,3.45-4.48a5.18,5.18,0,0,0,.59-.93c.19.08.34.17.53.26l1.28.48a5.73,5.73,0,0,0-.23.7c-.36,1.63-.74,3.37-1.14,5.2q-.69,3.09-1.47,6.54c-11.54,51.4-33,147.07-2.51,174.29a5.83,5.83,0,0,0,1.59,1,6,6,0,0,0,6.37-10c-24.95-22.27-3.67-118.57,5.91-161.3.12-.47.22-1,.33-1.43,1-4.3,1.84-8.2,2.58-11.63l.6.12a58,58,0,0,0-.87,15.35c.89,12.45,5.39,23.55,9.23,33,5.63,13.86,8.59,22,3.73,28.91-13.17,18.68-18.78,43.11-14.31,62.23,3.38,14.41,12.22,25.85,25.6,33.09a2.67,2.67,0,0,0,.45.22,6,6,0,0,0,5.24-10.75c-10.41-5.64-17-14.15-19.62-25.28-3.74-15.95,1.14-36.6,12.44-52.6,8.85-12.57,3.37-26.05-2.44-40.34-3.41-8.36-6.86-16.91-8.07-26.06a48.69,48.69,0,0,1-.23-11.15,38.81,38.81,0,0,0,2.42,10.68c3.12,8.29,8.61,14.81,13.7,20.84,5.74,6.8,11.18,13.23,13.22,21.68,1.28,5.35.75,14.67.23,23.69-1.08,18.82-2.19,38.28,9.26,46.57a18.26,18.26,0,0,0,3.35,1.92c5.93,2.59,13.49,2,22.94-1.67A6,6,0,0,0,252.48,371.68Z"/></g><g class="e"><path class="d" d="M378.64,181.71a42.57,42.57,0,0,1-14.87,2.51q-12.06,0-20.25-3.5A69.68,69.68,0,0,1,327,170.44a11.59,11.59,0,0,0-7.43-2.62,12,12,0,0,0-9.09,3.82,12.52,12.52,0,0,0-3.61,8.87,13.5,13.5,0,0,0,1.54,6.12,17.18,17.18,0,0,0,4.37,5.47,65.86,65.86,0,0,0,23.42,13.46,92.39,92.39,0,0,0,27.58,3.83,69.66,69.66,0,0,0,27.68-5.47,50.47,50.47,0,0,0,20.69-15.76Q420,177.89,420,163.65q0-11.16-3.29-18.93a31.78,31.78,0,0,0-9.84-12.91,53.83,53.83,0,0,0-16.53-8.42,152.7,152.7,0,0,0-15-4.06c-2.57-.57-5.25-1.13-8.05-1.64a127,127,0,0,1-17.3-4.48q-7.22-2.52-11.05-6.79a15.61,15.61,0,0,1-3.83-10.84A15.08,15.08,0,0,1,338.38,86a21.67,21.67,0,0,1,9.74-6.57,47.56,47.56,0,0,1,28.11-.55,85.52,85.52,0,0,1,12.48,4.6,39.7,39.7,0,0,1,9.41,5.8,9.64,9.64,0,0,0,5.91,2,11.64,11.64,0,0,0,8.75-3.94,12.46,12.46,0,0,0,3.73-8.75q0-6.57-6.35-11.6-7.65-6.56-19.81-10.83A78.84,78.84,0,0,0,364,51.82a70.2,70.2,0,0,0-27.57,5.25A46,46,0,0,0,316.6,72.39q-7.34,10.08-7.33,24.3c0,1.77.09,3.48.25,5.14a41.69,41.69,0,0,0,2.82,11.81,36.24,36.24,0,0,0,9.07,13.14,48.17,48.17,0,0,0,15,9.18,91.29,91.29,0,0,0,20.78,5.37,93,93,0,0,1,20.58,4.92q8.1,3.18,12,7.77a16.56,16.56,0,0,1,3.93,11.16,13.61,13.61,0,0,1-4.15,9.75A29.19,29.19,0,0,1,378.64,181.71Zm68.45,201.74a12.08,12.08,0,0,0-8.53-3.84,10.32,10.32,0,0,0-6.46,2.3c-2,1.54-4.19,3.25-6.67,5.14a39.39,39.39,0,0,1-7.11,4.38,22.59,22.59,0,0,1-10,2,33.4,33.4,0,0,1-12.8-2.3A114.43,114.43,0,0,1,384.72,386a101.67,101.67,0,0,0-11.05-5.14,32.11,32.11,0,0,0-7.52-1.91l13.1-4.86a68.44,68.44,0,0,0,13.9-4.51,71.52,71.52,0,0,0,23.64-17,78.16,78.16,0,0,0,15.42-25.07,84.52,84.52,0,0,0,5.47-30.63c0-2.76-.12-5.49-.34-8.16a82.38,82.38,0,0,0-5.13-22.48,78.22,78.22,0,0,0-15.42-25.06,71.55,71.55,0,0,0-23.64-17,72.37,72.37,0,0,0-29.88-6.13A71,71,0,0,0,310,241.19a77.87,77.87,0,0,0-15.42,25.06c-.5,1.3-1,2.63-1.4,4a85.69,85.69,0,0,0-4.07,26.68,84.52,84.52,0,0,0,5.47,30.63A77.81,77.81,0,0,0,310,352.59a71.59,71.59,0,0,0,23.53,17A67.35,67.35,0,0,0,346.9,374L325.19,382q-7.65,2.84-7.65,11.38a13.25,13.25,0,0,0,3.71,9,11.89,11.89,0,0,0,9.2,4.15,19.36,19.36,0,0,0,8.2-1.42c2-.95,3.8-1.89,5.47-2.84a13.42,13.42,0,0,1,6.67-1.42A23,23,0,0,1,362,403.36c3,1.68,6.34,3.57,9.84,5.69a60.87,60.87,0,0,0,13.35,5.69q8.08,2.5,21.66,2.51a54.74,54.74,0,0,0,13.68-2,74.56,74.56,0,0,0,14.56-5.48,43.57,43.57,0,0,0,11.48-8q4.5-4.5,4.49-9.52A12,12,0,0,0,447.09,383.45Zm-107.67-41a47.44,47.44,0,0,1-16.08-18.93,60,60,0,0,1-5.8-26.59,69.44,69.44,0,0,1,.65-9.49,56.34,56.34,0,0,1,5.15-17.21,47.62,47.62,0,0,1,16.08-18.83,44.15,44.15,0,0,1,47.71,0A47.86,47.86,0,0,1,402,267.75c.47.83.93,1.67,1.36,2.55a62.87,62.87,0,0,1,0,53.18,48.36,48.36,0,0,1-16.2,18.93,44.15,44.15,0,0,1-47.71,0Z"/></g></svg>