<svg xmlns="http://www.w3.org/2000/svg" xmlns:xlink="http://www.w3.org/1999/xlink" viewBox="0 0 839.04 166.31"><defs><style>.a{fill:none;stroke:#000;stroke-miterlimit:10;stroke-width:4px;filter:url(#b);}.b{mask:url(#a);}.c{fill:#fff;}</style><filter id="b" x="-176.98" y="0" width="1450" height="166.31" filterUnits="userSpaceOnUse" color-interpolation-filters="sRGB"><feFlood flood-color="#fff" result="bg"/><feBlend in="SourceGraphic" in2="bg"/></filter><mask id="a" x="-176.98" y="0" width="1450" height="166.31" maskUnits="userSpaceOnUse"><path class="a" d="M1273,60.57c-23.39,0-23.39-20-46.77-20s-23.39,20-46.78,20-23.38-20-46.77-20-23.39,20-46.77,20-23.39-20-46.78-20-23.38,20-46.77,20-23.38-20-46.77-20-23.39,20-46.77,20-23.39-20-46.78-20-23.38,20-46.77,20-23.39-20-46.77-20-23.39,20-46.78,20-23.38-20-46.76-20-23.39,20-46.77,20-23.39-20-46.77-20-23.39,20-46.78,20-23.39-20-46.77-20-23.39,20-46.77,20-23.39-20-46.78-20-23.38,20-46.77,20-23.39-20-46.77-20-23.39,20-46.78,20-23.39-20-46.78-20-23.38,20-46.77,20-23.39-20-46.78-20-23.39,20-46.77,20-23.39-20-46.78-20-23.39,20-46.78,20-23.39-20-46.77-20-23.4,20-46.79,20-23.39-20-46.78-20"/></mask></defs><title>negative title</title><g class="b"><path class="c" d="M91.74,77.58A26.59,26.59,0,0,0,83.52,66.8a45.1,45.1,0,0,0-13.8-7,129.09,129.09,0,0,0-12.55-3.39q-3.22-.72-6.73-1.37A105.7,105.7,0,0,1,36,51.27a21.66,21.66,0,0,1-9.23-5.67,13,13,0,0,1-3.2-9.05,12.62,12.62,0,0,1,2.75-8A18.06,18.06,0,0,1,34.45,23,38.13,38.13,0,0,1,47.7,21a37.8,37.8,0,0,1,10.23,1.55,71.18,71.18,0,0,1,10.42,3.84,33.43,33.43,0,0,1,7.86,4.84,8,8,0,0,0,4.93,1.65,9.74,9.74,0,0,0,7.31-3.29,10.42,10.42,0,0,0,3.11-7.31c0-3.66-1.77-6.88-5.3-9.69a51.24,51.24,0,0,0-16.54-9A65.87,65.87,0,0,0,47.7,0a58.68,58.68,0,0,0-23,4.39A38.36,38.36,0,0,0,8.13,17.18Q2,25.6,2,37.47a42.85,42.85,0,0,0,.21,4.3,35.07,35.07,0,0,0,2.35,9.86,30.26,30.26,0,0,0,7.58,11,40.19,40.19,0,0,0,12.52,7.67A76.48,76.48,0,0,0,42,74.75a78,78,0,0,1,17.18,4.11Q66,81.51,69.27,85.35a13.85,13.85,0,0,1,3.28,9.32,11.33,11.33,0,0,1-3.47,8.14,24.34,24.34,0,0,1-9.14,5.66,35.46,35.46,0,0,1-12.42,2.1q-10.07,0-16.91-2.92a58,58,0,0,1-13.8-8.59,9.69,9.69,0,0,0-6.21-2.19A10,10,0,0,0,3,100.06a10.48,10.48,0,0,0-3,7.41,11.24,11.24,0,0,0,1.28,5.11,14.37,14.37,0,0,0,3.65,4.57,55,55,0,0,0,19.56,11.24,77.13,77.13,0,0,0,23,3.2A58.17,58.17,0,0,0,70.64,127a42.11,42.11,0,0,0,17.27-13.16,32.69,32.69,0,0,0,6.58-20.47A40.59,40.59,0,0,0,91.74,77.58Zm133.05,57.3a8.6,8.6,0,0,0-5.39,1.92q-2.46,1.92-5.57,4.29a33.33,33.33,0,0,1-5.94,3.66,18.9,18.9,0,0,1-8.32,1.64,27.89,27.89,0,0,1-10.69-1.92,96.09,96.09,0,0,1-9-4.29,83.93,83.93,0,0,0-9.23-4.29,26.75,26.75,0,0,0-6.28-1.6l10.94-4.06a57.08,57.08,0,0,0,11.61-3.76,59.71,59.71,0,0,0,19.74-14.16,65.29,65.29,0,0,0,12.88-20.93,70.58,70.58,0,0,0,4.57-25.58c0-2.31-.1-4.59-.29-6.82a68.64,68.64,0,0,0-4.28-18.77,65.39,65.39,0,0,0-12.88-20.93A59.71,59.71,0,0,0,186.87,5.12a60.36,60.36,0,0,0-25-5.12,59.3,59.3,0,0,0-44.5,19.28,65,65,0,0,0-12.88,20.93c-.42,1.09-.81,2.2-1.17,3.31A71.57,71.57,0,0,0,100,65.8a70.58,70.58,0,0,0,4.57,25.58,64.94,64.94,0,0,0,12.88,20.93,59.76,59.76,0,0,0,19.65,14.16,56.12,56.12,0,0,0,11.18,3.68l-18.13,6.74q-6.39,2.37-6.39,9.5a11.07,11.07,0,0,0,3.1,7.5,9.91,9.91,0,0,0,7.68,3.47,16.11,16.11,0,0,0,6.85-1.19q2.47-1.18,4.57-2.37a11.2,11.2,0,0,1,5.57-1.19,19.2,19.2,0,0,1,9.33,2.1c2.55,1.4,5.3,3,8.22,4.75a50.66,50.66,0,0,0,11.15,4.75q6.75,2.1,18.09,2.1a45.45,45.45,0,0,0,11.42-1.64,62.34,62.34,0,0,0,12.16-4.57,36.49,36.49,0,0,0,9.59-6.67q3.75-3.75,3.75-8a11.14,11.14,0,0,0-10.42-10.6ZM142,103.81A39.67,39.67,0,0,1,128.57,88a50.07,50.07,0,0,1-4.84-22.2,58.21,58.21,0,0,1,.54-7.93,47.15,47.15,0,0,1,4.3-14.37A39.8,39.8,0,0,1,142,27.78a36.84,36.84,0,0,1,39.84,0,40,40,0,0,1,12.4,13.68c.39.7.77,1.4,1.13,2.13A49.32,49.32,0,0,1,200.3,65.8,49.31,49.31,0,0,1,195.37,88a40.37,40.37,0,0,1-13.53,15.81,36.84,36.84,0,0,1-39.84,0Zm224.24,25.95a11.5,11.5,0,0,0,8.05-3.2,10.38,10.38,0,0,0,3.47-8V13A10.5,10.5,0,0,0,374.38,5a11,11,0,0,0-7.77-3.2A11.59,11.59,0,0,0,358.2,5a10.64,10.64,0,0,0-3.29,8V118.61a10.8,10.8,0,0,0,11.33,11.15Zm237.13-2a10.14,10.14,0,0,0,3.2-7.86,12.22,12.22,0,0,0-.91-4.38L574.2,40.57,560.7,8.41A10.82,10.82,0,0,0,556.59,3a10.71,10.71,0,0,0-6.13-1.92A9.58,9.58,0,0,0,544,2.74a11.94,11.94,0,0,0-4.48,5.67L518,60.05,494,117.7a12.32,12.32,0,0,0-.55,3.47,10,10,0,0,0,2.38,6.77c1.58,1.82,4,2.74,7.31,2.74a9.63,9.63,0,0,0,5.76-1.92,11.36,11.36,0,0,0,3.93-5.39l9.48-22.3h54.5l9.49,22.11a13,13,0,0,0,4.11,5.49,9.58,9.58,0,0,0,5.94,2A10.2,10.2,0,0,0,603.37,127.75Zm-72.14-47.7L541.7,55.43l7.72-18.15,3.93,9.14,14.43,33.63Zm182.07,31.8a6.43,6.43,0,0,1-3.19-3.65,23.72,23.72,0,0,1-1.1-5.85c-.18-2.31-.52-5-1-8a27.28,27.28,0,0,0-2.28-9.23,30.68,30.68,0,0,0-5.3-8,29.34,29.34,0,0,0-5-4.35,36.94,36.94,0,0,0,7.23-6.16,42,42,0,0,0,5.31-7.2,42.75,42.75,0,0,0,2.37-4.68,33.86,33.86,0,0,0,2.83-13.53A40,40,0,0,0,708,20.75,38.2,38.2,0,0,0,694.57,6.86a33.9,33.9,0,0,0-17.82-5H624.12A10.93,10.93,0,0,0,613,13V118.61a9.78,9.78,0,0,0,4,8,14.23,14.23,0,0,0,9.14,3.2,8.58,8.58,0,0,0,7.12-3.2,12.29,12.29,0,0,0,2.56-8V83.16H670a24.14,24.14,0,0,1,7.31,1,13.35,13.35,0,0,1,5.12,2.93,13.18,13.18,0,0,1,3.1,4.57,14.87,14.87,0,0,1,1.1,5.75A52.31,52.31,0,0,0,688.54,113a26.63,26.63,0,0,0,5,9.59,25.83,25.83,0,0,0,6.21,5.4,18.32,18.32,0,0,0,5.12,1.73,15.11,15.11,0,0,0,6.21,0,8.84,8.84,0,0,0,5.12-3,8.53,8.53,0,0,0,2.1-8A10.31,10.31,0,0,0,713.3,111.85ZM688.92,47.23a28.71,28.71,0,0,1-1.57,5.86,22.59,22.59,0,0,1-5.12,8.23,9.19,9.19,0,0,1-6.39,3h-40V22.85h40q4.93,0,9.23,5.39a20.88,20.88,0,0,1,4.29,13.43A34.5,34.5,0,0,1,688.92,47.23Zm148.85,3.44A80.08,80.08,0,0,0,835.48,41a61.85,61.85,0,0,0-10.6-20.47,48.88,48.88,0,0,0-17.27-13.8,53.38,53.38,0,0,0-23.4-4.93H740.53A10.92,10.92,0,0,0,729.39,13V118.61a10.92,10.92,0,0,0,11.14,11.15h43.68q17.73,0,29.89-8.59a54.54,54.54,0,0,0,18.55-23.12A79.21,79.21,0,0,0,839,65.8,88.67,88.67,0,0,0,837.77,50.67ZM811.9,87.09a34.06,34.06,0,0,1-10.69,15.72q-7.31,5.94-18.82,5.94H752.23V22.85h30.16a28.66,28.66,0,0,1,25,12.88,42.35,42.35,0,0,1,5.94,13.71,65.87,65.87,0,0,1,1.73,11c.12,1.75.19,3.52.19,5.32A64.88,64.88,0,0,1,811.9,87.09ZM326,1.65a9.34,9.34,0,0,0-7.49,3.2,11.77,11.77,0,0,0-2.75,8V79a28.66,28.66,0,0,1-15.16,26.13A30.27,30.27,0,0,1,286,108.75a28.06,28.06,0,0,1-24.21-14A30.54,30.54,0,0,1,257.87,79V12.8a10.5,10.5,0,0,0-3.38-8,10.81,10.81,0,0,0-7.59-3.2,11.55,11.55,0,0,0-8.4,3.2,10.61,10.61,0,0,0-3.29,8V79q0,15.17,6.48,26.86a47,47,0,0,0,17.92,18.28q11.42,6.57,26.4,6.58t26.32-6.58a47.17,47.17,0,0,0,17.82-18.28q6.48-11.68,6.49-26.86V12.8a11.33,11.33,0,0,0-2.93-8A9.9,9.9,0,0,0,326,1.65ZM491.8,19.56a11.72,11.72,0,0,0,2.56-6.95,9.3,9.3,0,0,0-3.93-7.86,13.29,13.29,0,0,0-7.95-2.92H407.73a11.58,11.58,0,0,0-8,2.83,9.65,9.65,0,0,0-3.2,7.59,9.89,9.89,0,0,0,3.2,7.67,11.33,11.33,0,0,0,8,2.93h52.88L431.5,60.3,391.28,112a11.68,11.68,0,0,0-2.56,7,10.19,10.19,0,0,0,3.47,7.4,11.38,11.38,0,0,0,8.23,3.38h80.23a11.13,11.13,0,0,0,8-3,10,10,0,0,0,3.2-7.59,9.64,9.64,0,0,0-3.2-7.58,11.54,11.54,0,0,0-8-2.83H422.37l53.11-68.23Z"/></g></svg>