<svg xmlns="http://www.w3.org/2000/svg" xmlns:xlink="http://www.w3.org/1999/xlink" viewBox="0 0 86.38 86.38"><defs><style>.a{filter:url(#b);}.b{mask:url(#a);}.c{fill:#bbdded;}</style><filter id="b" x="0" y="0" width="86.38" height="86.38" filterUnits="userSpaceOnUse" color-interpolation-filters="sRGB"><feFlood flood-color="#fff" result="bg"/><feBlend in="SourceGraphic" in2="bg"/></filter><mask id="a" x="0" y="0" width="86.38" height="86.38" maskUnits="userSpaceOnUse"><path class="a" d="M33.5,33.41,37.88,29a2,2,0,0,0,0-2.84L33,21.36l-4.72-4.72a2,2,0,0,0-2.84,0l-4.77,4.77L33.15,33.85ZM69.74,58.07,65,53.34l-4.83-4.83a2,2,0,0,0-2.84,0L53,52.88l-.44.36L65,65.68l4.77-4.77A2,2,0,0,0,69.74,58.07Zm-22.1-2.31c-1.15.08-2.47.76-10.12-6.89s-7-9-6.9-10.12a5.31,5.31,0,0,1,.55-1.81l-13-13c-3.76,3.77-4,16.55,11.86,32.41S58.68,72,62.44,68.21l-13-13A5,5,0,0,1,47.64,55.76Z"/></mask></defs><title>phone icon</title><g class="b"><circle class="c" cx="43.19" cy="43.19" r="43.19"/></g></svg>