<svg xmlns="http://www.w3.org/2000/svg" viewBox="0 0 76.13 76.13"><defs><filter id="a" x="0" y="0" width="76.13" height="76.13" filterUnits="userSpaceOnUse" color-interpolation-filters="sRGB"><feColorMatrix values="-1 0 0 0 1 0 -1 0 0 1 0 0 -1 0 1 0 0 0 1 0" result="invert"/><feFlood flood-color="#fff" result="bg"/><feBlend in="invert" in2="bg"/></filter><mask id="b" x="0" y="0" width="76.13" height="76.13" maskUnits="userSpaceOnUse"><path d="M48.74 58.75a.84.84 0 00-1.09-.47c-.69.27-1.61.52-2.09.17-.87-.63-.72-3.21-.61-5.09a14.73 14.73 0 00-.08-3.82 8.35 8.35 0 00-1.87-3.4l-.29-.34c-1-1.23-1.94-2.3-1.88-4a10.14 10.14 0 003.74 3.51c1.54.68 2.89.18 4.56-.57a13.69 13.69 0 013.34-1.15.84.84 0 00-.36-1.59 16 16 0 00-3.73 1.27c-2.29 1-3.35 1.52-6.24-2.39a11.33 11.33 0 004.24-5.31 40.45 40.45 0 002.77-10.86c.13-1 .22-1.79.27-2.37 2.2 2 2.87.74 3-.92S48.18 14 49.14 10.11c-2.22 3.37-9.38 4-10.5 5.24s-1.56 2.57 1.36 2.83c-.41.47-1 1.15-1.69 2a40.8 40.8 0 00-5.83 9 11.51 11.51 0 00-1.11 7c-3.38.26-4.3-1.86-5.27-4.11-.63-1.47-1.28-3-2.71-3.5a.84.84 0 00-.58 1.58c.75.27 1.21 1.34 1.75 2.58.71 1.66 1.61 3.75 3.74 4.67a6.52 6.52 0 003.24.45 5.63 5.63 0 01-4.22 1.45c-.2 0-.4 0-.6-.08-3.23-.6-6.57-.12-8.52 1.22s-3.28 4-4.07 5.78a.84.84 0 101.54.68c.41-.95 1.66-3.81 3.49-5.07 1.57-1.09 4.48-1.47 7.25-1a7.07 7.07 0 004.82-.78 8.48 8.48 0 001.11-.73c-.3.34-.61.66-.91 1a47.1 47.1 0 01-4.55 3.91c-3.67 2.86-6.84 5.34-6.55 11 .21 4.15-.48 5.25-.55 5.36a.83.83 0 00-.08 1.12.84.84 0 001.18.14c.43-.33 1.38-1.66 1.13-6.71-.25-4.79 2.33-6.8 5.9-9.59a47 47 0 004.64-4c.49-.49 1-1 1.45-1.57l.1.08c-.45.57-.86 1.12-1.23 1.66-4.39 6.28-4.29 10.2-4.22 13.11a7.5 7.5 0 01-.59 4.06c-.78 1.43-1.82 2-2.5 2a1.53 1.53 0 01-1.22-1.08.84.84 0 10-1.55.64 3.37 3.37 0 001.73 1.9 2.5 2.5 0 00.95.22c1.5.08 3.06-1 4.07-2.87a9.14 9.14 0 00.8-4.9c-.08-3-.18-6.68 4.69-13.1l.49-.63.08-.13h.08l.18.06v.1c0 .23-.1.48-.16.73s-.13.6-.2.92c-1.67 7.25-4.68 20.7-.4 24.52a1.14 1.14 0 00.23.15.85.85 0 001-.21.84.84 0 00-.11-1.21c-3.5-3.13-.51-16.67.83-22.67 0-.07 0-.13.05-.2.13-.6.26-1.15.36-1.63h.09a8 8 0 00-.13 2.16 15.15 15.15 0 001.3 4.63c.79 2 1.21 3.1.53 4.07a11.48 11.48 0 00-2 8.74 7 7 0 003.6 4.65.09.09 0 00.06 0 .84.84 0 00.74-1.51 5.28 5.28 0 01-2.76-3.55 9.74 9.74 0 011.75-7.39c1.25-1.77.48-3.66-.34-5.67A15 15 0 0139.14 44a7.45 7.45 0 010-1.57 5.78 5.78 0 00.34 1.5 10.08 10.08 0 001.93 2.93 7.77 7.77 0 011.86 3 14.37 14.37 0 010 3.33c-.15 2.64-.31 5.38 1.3 6.54a2.2 2.2 0 00.47.27 4.22 4.22 0 003.22-.23.84.84 0 00.48-1.02z" filter="url(#a)" fill="#fff"/></mask></defs><g mask="url(#b)"><circle cx="38.07" cy="38.07" r="38.07" fill="#fff"/></g></svg>