<svg xmlns="http://www.w3.org/2000/svg" viewBox="0 0 658.21 57.41"><defs><style>.a{fill:#fff;}</style></defs><title>tagline</title><path class="a" d="M31.51,13a3.57,3.57,0,0,0-2.63-1A3.51,3.51,0,0,0,26.26,13a3.67,3.67,0,0,0-1,2.66v.69a13.47,13.47,0,0,0-10.14-4.42,13.91,13.91,0,0,0-7.63,2.17,15.52,15.52,0,0,0-5.44,6,18.7,18.7,0,0,0-2,8.83,18.49,18.49,0,0,0,2,8.76,15.38,15.38,0,0,0,5.5,6,14.53,14.53,0,0,0,7.82,2.16A11.28,11.28,0,0,0,19.48,45a14,14,0,0,0,3.39-1.86A11.13,11.13,0,0,0,25.13,41l.09-.14v3A6.23,6.23,0,0,1,23,48.86q-2.19,1.83-6.78,1.83a11.27,11.27,0,0,1-3-.46,27.84,27.84,0,0,1-3.08-1c-.94-.36-1.61-.61-2-.73a3.09,3.09,0,0,0-2.56.15,3.81,3.81,0,0,0-1.77,2.42,3,3,0,0,0,.27,2.53,5.17,5.17,0,0,0,2.54,2,22.49,22.49,0,0,0,2.68.79c1.18.28,2.42.53,3.73.73a20.69,20.69,0,0,0,3.17.31,22,22,0,0,0,8-1.44,12.88,12.88,0,0,0,6-4.64,14.35,14.35,0,0,0,2.29-8.52V15.64A3.65,3.65,0,0,0,31.51,13ZM24.37,34.08a9.15,9.15,0,0,1-3.24,3.66,8.77,8.77,0,0,1-4.89,1.35,8.63,8.63,0,0,1-4.82-1.35,9.07,9.07,0,0,1-3.24-3.66A11.51,11.51,0,0,1,7,28.89a11.58,11.58,0,0,1,1.16-5.25A9.17,9.17,0,0,1,11.42,20a8.71,8.71,0,0,1,4.82-1.34A8.85,8.85,0,0,1,21.13,20a9.24,9.24,0,0,1,3.24,3.67,11.58,11.58,0,0,1,1.16,5.25A11.51,11.51,0,0,1,24.37,34.08Z"/><path class="a" d="M62.38,13a4.67,4.67,0,0,0-3.08-1,12.81,12.81,0,0,0-3.06.37,10.93,10.93,0,0,0-2.87,1.13A10.48,10.48,0,0,0,51,15.3a10,10,0,0,0-1.31,1.83v-.88a3.67,3.67,0,0,0-1-2.66,3.75,3.75,0,0,0-5.25,0,3.67,3.67,0,0,0-1,2.66V41.47a3.69,3.69,0,0,0,1,2.66,3.78,3.78,0,0,0,5.25,0,3.69,3.69,0,0,0,1-2.66V27a11.22,11.22,0,0,1,.58-3.81,8.39,8.39,0,0,1,1.53-2.72,6.23,6.23,0,0,1,2.07-1.62,5.44,5.44,0,0,1,2.23-.52,5.28,5.28,0,0,1,2.17.43,5,5,0,0,0,2.11.43,3.44,3.44,0,0,0,2.26-.89,3.63,3.63,0,0,0,1-2.9A3.08,3.08,0,0,0,62.38,13Z"/><path class="a" d="M99,13a3.79,3.79,0,0,0-5.25,0,3.67,3.67,0,0,0-1,2.66v.09a13.67,13.67,0,0,0-1.19-1,14.63,14.63,0,0,0-3.81-2,14.39,14.39,0,0,0-4.83-.79,13.41,13.41,0,0,0-7.45,2.17,15.36,15.36,0,0,0-5.34,6,18.81,18.81,0,0,0-2,8.83,18.61,18.61,0,0,0,2,8.76,15.22,15.22,0,0,0,5.4,6,14,14,0,0,0,7.64,2.16,11.85,11.85,0,0,0,4.3-.76,14.47,14.47,0,0,0,3.45-1.86,12.65,12.65,0,0,0,1.84-1.65,3.64,3.64,0,0,0,1,2.6,3.78,3.78,0,0,0,5.25,0,3.69,3.69,0,0,0,1-2.66V15.64A3.65,3.65,0,0,0,99,13ZM91.88,34.08a8.94,8.94,0,0,1-3.15,3.66A8.24,8.24,0,0,1,84,39.09a8.13,8.13,0,0,1-4.64-1.35,9.09,9.09,0,0,1-3.15-3.66,11.76,11.76,0,0,1-1.13-5.19,11.84,11.84,0,0,1,1.13-5.25A9.19,9.19,0,0,1,79.39,20,8.2,8.2,0,0,1,84,18.63,8.31,8.31,0,0,1,88.73,20a9,9,0,0,1,3.15,3.67A11.84,11.84,0,0,1,93,28.89,11.76,11.76,0,0,1,91.88,34.08Z"/><path class="a" d="M139.76,20a15.43,15.43,0,0,0-5.38-6,13.87,13.87,0,0,0-7.66-2.17,11.24,11.24,0,0,0-4.06.73,12.84,12.84,0,0,0-3.39,1.87,13.18,13.18,0,0,0-2.14,2v-.29a3.67,3.67,0,0,0-1-2.66,3.75,3.75,0,0,0-5.25,0,3.67,3.67,0,0,0-1,2.66V53.68a3.65,3.65,0,0,0,1,2.69,3.57,3.57,0,0,0,2.63,1,3.51,3.51,0,0,0,2.62-1.07,3.67,3.67,0,0,0,1-2.66v-12a13.23,13.23,0,0,0,1.5,1.3,14.7,14.7,0,0,0,3.75,2,13,13,0,0,0,4.58.79,13.44,13.44,0,0,0,7.48-2.16,15.58,15.58,0,0,0,5.32-6,18.86,18.86,0,0,0,2-8.82A18.75,18.75,0,0,0,139.76,20Zm-6.17,14a9,9,0,0,1-3.12,3.69,8.1,8.1,0,0,1-4.67,1.35,8.24,8.24,0,0,1-4.7-1.35A9.05,9.05,0,0,1,118,34.05a12,12,0,0,1-1.13-5.22A11.65,11.65,0,0,1,118,23.61,9.24,9.24,0,0,1,121.1,20a8.31,8.31,0,0,1,4.7-1.34A8.16,8.16,0,0,1,130.47,20a9.17,9.17,0,0,1,3.12,3.64,11.65,11.65,0,0,1,1.13,5.22A12,12,0,0,1,133.59,34.05Z"/><path class="a" d="M173.53,13.8q-2.29-1.89-6.69-1.89a10.42,10.42,0,0,0-3.72.64A12.8,12.8,0,0,0,160,14.23a13.11,13.11,0,0,0-2.38,2.23c-.23.28-.42.54-.61.81V3.73a3.67,3.67,0,0,0-1-2.66,3.75,3.75,0,0,0-5.25,0,3.67,3.67,0,0,0-1,2.66V41.47a3.69,3.69,0,0,0,1,2.66,3.78,3.78,0,0,0,5.25,0,3.69,3.69,0,0,0,1-2.66V25.83a7.88,7.88,0,0,1,.82-3.63,6.3,6.3,0,0,1,2.48-2.59,7.57,7.57,0,0,1,4-1,5.88,5.88,0,0,1,3.66,1,5,5,0,0,1,1.77,2.59,12.41,12.41,0,0,1,.49,3.63V41.47a3.69,3.69,0,0,0,1,2.66,3.78,3.78,0,0,0,5.25,0,3.69,3.69,0,0,0,1-2.66V25.83a26.66,26.66,0,0,0-.86-7A9.71,9.71,0,0,0,173.53,13.8Z"/><path class="a" d="M190.54,12.52a3.52,3.52,0,0,0-2.63,1.07,3.67,3.67,0,0,0-1,2.66V41.47a3.69,3.69,0,0,0,1,2.66,3.78,3.78,0,0,0,5.25,0,3.69,3.69,0,0,0,1-2.66V16.25a3.67,3.67,0,0,0-1-2.66A3.51,3.51,0,0,0,190.54,12.52Z"/><path class="a" d="M190.54,1.28a5.18,5.18,0,0,0-2.9.65,2.68,2.68,0,0,0-.95,2.41V5.5a2.87,2.87,0,0,0,.85,2.38,4.84,4.84,0,0,0,2.93.67,5.35,5.35,0,0,0,3-.64,2.76,2.76,0,0,0,.91-2.41V4.34A2.85,2.85,0,0,0,193.53,2,5,5,0,0,0,190.54,1.28Z"/><path class="a" d="M226.38,36.77a3.11,3.11,0,0,0-2,.55,11.32,11.32,0,0,1-1.53,1,6.29,6.29,0,0,1-1.83.55,15.32,15.32,0,0,1-2.63.19,8.78,8.78,0,0,1-4.85-1.35,9.19,9.19,0,0,1-3.3-3.63A11.21,11.21,0,0,1,209,28.89a11.53,11.53,0,0,1,1.16-5.28A8.93,8.93,0,0,1,213.53,20a9.86,9.86,0,0,1,5.28-1.34,12.33,12.33,0,0,1,1.86.21,5.65,5.65,0,0,1,1.87.58,7,7,0,0,1,1.16.8,4.4,4.4,0,0,0,1.13.7,4.13,4.13,0,0,0,1.61.27,2.41,2.41,0,0,0,2.14-1.07,3.94,3.94,0,0,0,.73-2.29,4.09,4.09,0,0,0-1.43-3.14,9.84,9.84,0,0,0-4-2,22.46,22.46,0,0,0-6.08-.73,15.9,15.9,0,0,0-8.33,2.17,15.07,15.07,0,0,0-5.68,6,18.36,18.36,0,0,0-2,8.83,18.92,18.92,0,0,0,1.93,8.61,14.94,14.94,0,0,0,5.46,6.08,15.43,15.43,0,0,0,8.37,2.22,22.59,22.59,0,0,0,6-.76A13.88,13.88,0,0,0,228,43a3.5,3.5,0,0,0,1.71-2.78,3.72,3.72,0,0,0-.85-2.48A3,3,0,0,0,226.38,36.77Z"/><path class="a" d="M293.16,40.43A5.7,5.7,0,0,0,292,39q-1.28-1.22-3.33-3.08l-1.44-1.31c.23-.43.45-.87.65-1.32A27.87,27.87,0,0,0,290,26.08a4,4,0,0,0-.67-3,2.92,2.92,0,0,0-2.51-1.29,3.39,3.39,0,0,0-2.17.55,2.34,2.34,0,0,0-.76,1.53,22.23,22.23,0,0,1-1.43,5.4c-.09.22-.19.43-.29.64-.88-.83-1.77-1.67-2.65-2.53-1.56-1.53-3-3-4.24-4.3-.77-.86-1.74-1.84-2.9-2.94a24.28,24.28,0,0,1-3.09-3.51,6.4,6.4,0,0,1-1.34-3.75,4.77,4.77,0,0,1,1.44-3.48,5.57,5.57,0,0,1,4.18-1.47,11,11,0,0,1,4.06.7,7.34,7.34,0,0,1,3.08,2.48,4.09,4.09,0,0,0,.86.73,2.77,2.77,0,0,0,1.53.37,3.15,3.15,0,0,0,2.32-.86,2.75,2.75,0,0,0,.85-2A5,5,0,0,0,286,7.73a5.35,5.35,0,0,0-.31-.77,8.37,8.37,0,0,0-4.55-3.72,19.61,19.61,0,0,0-7.6-1.41,14.63,14.63,0,0,0-7.08,1.62,12.06,12.06,0,0,0-4.62,4.22,10.43,10.43,0,0,0-1.61,5.58,8.17,8.17,0,0,0,1.06,4.13,19.58,19.58,0,0,0,1.37,2,17.67,17.67,0,0,0-4.72,2.94,12.58,12.58,0,0,0-3.24,4.49,14.32,14.32,0,0,0-1.07,5.59,11.77,11.77,0,0,0,2,6.53A14.89,14.89,0,0,0,261,43.91a16,16,0,0,0,7.79,1.89,20.75,20.75,0,0,0,8.58-1.67,19.37,19.37,0,0,0,5.78-4l5.3,4.6a2.78,2.78,0,0,0,.83.42,3.54,3.54,0,0,0,1.25.19,2.48,2.48,0,0,0,2.29-1.16,4,4,0,0,0,.7-2A3.62,3.62,0,0,0,293.16,40.43ZM275.7,37.59a10.15,10.15,0,0,1-5.16,1.31A11.57,11.57,0,0,1,265,37.77a7,7,0,0,1-3-2.87,7.59,7.59,0,0,1-.92-3.57,7.22,7.22,0,0,1,1.44-4.55,8.2,8.2,0,0,1,4.41-2.45L268,25.59c1.79,2,3.71,4,5.74,6,1.39,1.34,2.87,2.71,4.44,4.13A13.11,13.11,0,0,1,275.7,37.59Z"/><path class="a" d="M357.44,12.52a3.3,3.3,0,0,0-3.54,2.32L347.35,32.4l-4.69-12.73A3.86,3.86,0,0,0,341.53,18a3.13,3.13,0,0,0-2-.58,3.4,3.4,0,0,0-3.35,2.26l-4.82,13.07-6.6-17.9a3,3,0,0,0-1.29-1.77,3.91,3.91,0,0,0-2.07-.55,3.34,3.34,0,0,0-2.69,1.16,4,4,0,0,0-1,2.63,3.86,3.86,0,0,0,.25,1.4l9.34,25.16a3.31,3.31,0,0,0,1.56,1.87,3.43,3.43,0,0,0,2.29.45,3.57,3.57,0,0,0,3.11-2.32l4.92-15,5.22,15a3.57,3.57,0,0,0,3.12,2.32,3.47,3.47,0,0,0,2.32-.45,3.36,3.36,0,0,0,1.52-1.87l9.35-25.16a3.17,3.17,0,0,0,.18-.64,4.34,4.34,0,0,0,.06-.76,3.75,3.75,0,0,0-1-2.72A3.29,3.29,0,0,0,357.44,12.52Z"/><path class="a" d="M396.71,30.48a3.17,3.17,0,0,0,1.16-2.39,15.83,15.83,0,0,0-1.25-6.23,17.37,17.37,0,0,0-3.39-5.16,16.4,16.4,0,0,0-4.92-3.51,14,14,0,0,0-5.89-1.28A15,15,0,0,0,374.78,14a15.8,15.8,0,0,0-5.83,6,18.5,18.5,0,0,0-2.23,9.38,17.13,17.13,0,0,0,2,8.42,15,15,0,0,0,5.86,5.9,18,18,0,0,0,9,2.16,17.78,17.78,0,0,0,5.92-1A14.32,14.32,0,0,0,394,42.45a3.83,3.83,0,0,0,1.71-3,3.09,3.09,0,0,0-3.11-3.05,4.59,4.59,0,0,0-2.08.55c-.45.24-1,.54-1.5.88a7.85,7.85,0,0,1-2.16.89,14.43,14.43,0,0,1-3.61.37,9.36,9.36,0,0,1-8.15-4.68,9.31,9.31,0,0,1-1.12-3h20.14A3.9,3.9,0,0,0,396.71,30.48Zm-6.66-5.2h-16a10.58,10.58,0,0,1,.36-1.4,7.8,7.8,0,0,1,1.83-3.11A6.41,6.41,0,0,1,379,19.12a11.4,11.4,0,0,1,3.42-.49,8,8,0,0,1,3.57.82,8.23,8.23,0,0,1,2.81,2.23,5.6,5.6,0,0,1,1.25,3.18Z"/><path class="a" d="M435.76,20a15.33,15.33,0,0,0-5.37-6,13.9,13.9,0,0,0-7.67-2.17,11.28,11.28,0,0,0-4.06.73,13.42,13.42,0,0,0-5.53,3.9V3.73a3.67,3.67,0,0,0-1-2.66,3.77,3.77,0,0,0-5.26,0,3.67,3.67,0,0,0-1,2.66V42.08a3.66,3.66,0,0,0,1,2.69,3.58,3.58,0,0,0,2.63,1,3.53,3.53,0,0,0,2.63-1.06,3.68,3.68,0,0,0,1-2.66V41.7a14.17,14.17,0,0,0,1.5,1.3,14.77,14.77,0,0,0,3.76,2,13,13,0,0,0,4.58.79,13.46,13.46,0,0,0,7.48-2.16,15.48,15.48,0,0,0,5.31-6,18.86,18.86,0,0,0,2-8.82A18.75,18.75,0,0,0,435.76,20Zm-6.17,14a9,9,0,0,1-3.11,3.69,8.12,8.12,0,0,1-4.67,1.35,8.27,8.27,0,0,1-4.71-1.35A9,9,0,0,1,414,34.05a11.82,11.82,0,0,1-1.13-5.22A11.52,11.52,0,0,1,414,23.61,9.13,9.13,0,0,1,417.1,20a8.34,8.34,0,0,1,4.71-1.34A8.19,8.19,0,0,1,426.48,20a9.22,9.22,0,0,1,3.11,3.64,11.52,11.52,0,0,1,1.13,5.22A11.82,11.82,0,0,1,429.59,34.05Z"/><path class="a" d="M493.68,1a3.79,3.79,0,0,0-5.25,0,3.67,3.67,0,0,0-1,2.66v12a13.67,13.67,0,0,0-1.19-1,14.63,14.63,0,0,0-3.81-2,14.39,14.39,0,0,0-4.83-.79,13.41,13.41,0,0,0-7.45,2.17,15.36,15.36,0,0,0-5.34,6,18.81,18.81,0,0,0-2,8.83,18.61,18.61,0,0,0,2,8.76,15.22,15.22,0,0,0,5.4,6,14,14,0,0,0,7.64,2.16,11.85,11.85,0,0,0,4.3-.76,14.28,14.28,0,0,0,3.45-1.86,12.65,12.65,0,0,0,1.84-1.65,3.64,3.64,0,0,0,1,2.6,3.78,3.78,0,0,0,5.25,0,3.65,3.65,0,0,0,1-2.66V3.73A3.61,3.61,0,0,0,493.68,1Zm-7.11,33a9,9,0,0,1-3.14,3.66,8.29,8.29,0,0,1-4.71,1.35,8.16,8.16,0,0,1-4.64-1.35,9,9,0,0,1-3.14-3.66,11.63,11.63,0,0,1-1.13-5.19,11.71,11.71,0,0,1,1.13-5.25A9.09,9.09,0,0,1,474.08,20a8.23,8.23,0,0,1,4.64-1.34A8.36,8.36,0,0,1,483.43,20a9.09,9.09,0,0,1,3.14,3.67,11.84,11.84,0,0,1,1.13,5.25A11.76,11.76,0,0,1,486.57,34.08Z"/><path class="a" d="M532.65,30.48a3.17,3.17,0,0,0,1.16-2.39,15.66,15.66,0,0,0-1.26-6.23,17.15,17.15,0,0,0-3.38-5.16,16.4,16.4,0,0,0-4.92-3.51,14,14,0,0,0-5.89-1.28A15,15,0,0,0,510.72,14a15.8,15.8,0,0,0-5.83,6,18.5,18.5,0,0,0-2.23,9.38,17.13,17.13,0,0,0,2,8.42,14.91,14.91,0,0,0,5.86,5.9,18,18,0,0,0,9,2.16,17.78,17.78,0,0,0,5.92-1A14.32,14.32,0,0,0,530,42.45a3.83,3.83,0,0,0,1.71-3,3.09,3.09,0,0,0-3.12-3.05,4.58,4.58,0,0,0-2.07.55c-.45.24-1,.54-1.5.88a7.8,7.8,0,0,1-2.17.89,14.29,14.29,0,0,1-3.6.37,9.48,9.48,0,0,1-4.61-1.19,9.45,9.45,0,0,1-4.66-6.51h20.14A3.9,3.9,0,0,0,532.65,30.48ZM526,25.28H510a10.58,10.58,0,0,1,.36-1.4,7.8,7.8,0,0,1,1.83-3.11,6.41,6.41,0,0,1,2.75-1.65,11.4,11.4,0,0,1,3.42-.49,8,8,0,0,1,3.57.82,8.32,8.32,0,0,1,2.81,2.23A5.6,5.6,0,0,1,526,24.86Z"/><path class="a" d="M561.53,28.77A14.65,14.65,0,0,0,558.05,27c-1.26-.44-2.5-.83-3.72-1.16s-2.29-.66-3.33-1a7.09,7.09,0,0,1-2.48-1.35,2.84,2.84,0,0,1-.91-2.23A2.84,2.84,0,0,1,548.4,19a4,4,0,0,1,1.86-.91,10.45,10.45,0,0,1,2-.21,9.52,9.52,0,0,1,4,.79A7.18,7.18,0,0,1,559,20.83a3.26,3.26,0,0,0,2,.82,2.94,2.94,0,0,0,2.14-.64,2.62,2.62,0,0,0,1.16-2.32,4.38,4.38,0,0,0-.79-2.2,10,10,0,0,0-3.18-2.66,15.28,15.28,0,0,0-4-1.46,18.14,18.14,0,0,0-4-.46,14.47,14.47,0,0,0-5.71,1.16,11.1,11.1,0,0,0-4.42,3.3,8,8,0,0,0-1.71,5.19,8.74,8.74,0,0,0,1,4.46,8.33,8.33,0,0,0,2.69,2.84,16.45,16.45,0,0,0,3.63,1.74c1.33.45,2.62.85,3.88,1.22s2.33.67,3.33,1a7.52,7.52,0,0,1,2.41,1.34,2.69,2.69,0,0,1,.92,2.14,3.05,3.05,0,0,1-.83,2.35,3.92,3.92,0,0,1-1.92,1,16.47,16.47,0,0,1-2,.27,10.76,10.76,0,0,1-4.89-1,14.41,14.41,0,0,1-3.73-2.74A3.41,3.41,0,0,0,543,35.09a3.3,3.3,0,0,0-2.08.52,2.93,2.93,0,0,0-1.59,2.32,3.42,3.42,0,0,0,.55,2.2,12.46,12.46,0,0,0,6,4.42A21.66,21.66,0,0,0,553,45.8a14.5,14.5,0,0,0,5.62-1.13,11.61,11.61,0,0,0,4.58-3.32A8.05,8.05,0,0,0,565.07,36a9,9,0,0,0-1-4.42A8.36,8.36,0,0,0,561.53,28.77Z"/><path class="a" d="M576.25,1.28a5.21,5.21,0,0,0-2.9.65,2.71,2.71,0,0,0-1,2.41V5.5a2.87,2.87,0,0,0,.86,2.38,4.82,4.82,0,0,0,2.93.67,5.33,5.33,0,0,0,3-.64,2.76,2.76,0,0,0,.92-2.41V4.34A2.86,2.86,0,0,0,579.24,2,4.94,4.94,0,0,0,576.25,1.28Z"/><path class="a" d="M576.25,12.52a3.54,3.54,0,0,0-2.63,1.07,3.67,3.67,0,0,0-1,2.66V41.47a3.68,3.68,0,0,0,1,2.66,3.79,3.79,0,0,0,5.26,0,3.68,3.68,0,0,0,1-2.66V16.25a3.67,3.67,0,0,0-1-2.66A3.54,3.54,0,0,0,576.25,12.52Z"/><path class="a" d="M618.94,13a3.57,3.57,0,0,0-2.63-1A3.5,3.5,0,0,0,613.69,13a3.63,3.63,0,0,0-1,2.66v.69a13.38,13.38,0,0,0-5.44-3.63,13.59,13.59,0,0,0-4.7-.79,13.91,13.91,0,0,0-7.63,2.17,15.44,15.44,0,0,0-5.44,6,18.7,18.7,0,0,0-2,8.83,18.49,18.49,0,0,0,2,8.76,15.31,15.31,0,0,0,5.5,6,14.5,14.5,0,0,0,7.81,2.16,11.34,11.34,0,0,0,4.16-.76,14,14,0,0,0,3.39-1.86A11.39,11.39,0,0,0,612.56,41a1.1,1.1,0,0,1,.09-.14v3a6.23,6.23,0,0,1-2.2,5.07q-2.21,1.83-6.78,1.83a11.27,11.27,0,0,1-3-.46,28.76,28.76,0,0,1-3.09-1c-.93-.36-1.6-.61-2-.73a3.11,3.11,0,0,0-2.57.15,3.88,3.88,0,0,0-1.77,2.42,3,3,0,0,0,.28,2.53,5.19,5.19,0,0,0,2.53,2,22.76,22.76,0,0,0,2.69.79c1.18.28,2.42.53,3.72.73a20.92,20.92,0,0,0,3.18.31,22,22,0,0,0,8-1.44,12.93,12.93,0,0,0,6-4.64A14.42,14.42,0,0,0,620,42.81V15.64A3.65,3.65,0,0,0,618.94,13Zm-7.15,21.13a9,9,0,0,1-3.23,3.66,8.8,8.8,0,0,1-4.89,1.35,8.63,8.63,0,0,1-4.82-1.35,9,9,0,0,1-3.24-3.66,11.51,11.51,0,0,1-1.16-5.19,11.58,11.58,0,0,1,1.16-5.25A9.09,9.09,0,0,1,598.85,20a8.71,8.71,0,0,1,4.82-1.34A8.87,8.87,0,0,1,608.56,20a9.14,9.14,0,0,1,3.23,3.67A11.45,11.45,0,0,1,613,28.89,11.38,11.38,0,0,1,611.79,34.08Z"/><path class="a" d="M654.08,13.8q-2.34-1.89-6.87-1.89a11.13,11.13,0,0,0-3.84.64,12.5,12.5,0,0,0-3.18,1.68,15.06,15.06,0,0,0-2.44,2.23c-.25.28-.47.56-.67.83v-1a3.67,3.67,0,0,0-1-2.66,3.54,3.54,0,0,0-2.63-1.07,3.5,3.5,0,0,0-2.62,1.07,3.63,3.63,0,0,0-1,2.66V41.47a3.65,3.65,0,0,0,1,2.66,3.49,3.49,0,0,0,2.62,1.06A3.53,3.53,0,0,0,636,44.13a3.69,3.69,0,0,0,1-2.66V25.83A7.44,7.44,0,0,1,638,22.2a6.66,6.66,0,0,1,2.57-2.59,8,8,0,0,1,4.12-1,6.42,6.42,0,0,1,3.85,1,5,5,0,0,1,1.86,2.59,12.05,12.05,0,0,1,.52,3.63V41.47a3.65,3.65,0,0,0,1,2.66,3.49,3.49,0,0,0,2.62,1.06,3.53,3.53,0,0,0,2.63-1.06,3.69,3.69,0,0,0,1-2.66V25.83a25.8,25.8,0,0,0-.89-7A9.67,9.67,0,0,0,654.08,13.8Z"/></svg>